<?xml version="1.0" standalone="no"?>
<!DOCTYPE svg PUBLIC "-//W3C//DTD SVG 20010904//EN"
 "http://www.w3.org/TR/2001/REC-SVG-20010904/DTD/svg10.dtd">
<svg version="1.0" xmlns="http://www.w3.org/2000/svg"
 width="200.000000pt" height="200.000000pt" viewBox="0 0 200.000000 200.000000"
 preserveAspectRatio="xMidYMid meet">
<metadata>
Created by potrace 1.11, written by Peter Selinger 2001-2013
</metadata>
<g transform="translate(0.000000,200.000000) scale(0.100000,-0.100000)"
fill="#000000" stroke="none">
<path d="M297 1763 c-2 -2 -17 -5 -33 -7 -35 -4 -104 -36 -104 -48 0 -5 -4 -6
-10 -3 -5 3 -7 0 -4 -8 3 -8 -2 -17 -11 -21 -9 -3 -13 -10 -10 -16 3 -5 2 -10
-3 -10 -20 0 -24 -94 -24 -655 0 -571 4 -665 32 -665 6 0 10 -9 10 -21 0 -11
4 -18 9 -15 4 3 16 -3 26 -14 10 -11 22 -17 26 -14 5 3 9 1 9 -4 0 -19 70 -32
107 -20 12 4 24 4 27 0 6 -9 108 -8 124 2 7 4 18 3 25 -3 7 -6 18 -6 27 -1 7
4 24 4 37 -1 13 -5 33 -5 47 1 13 5 26 6 29 3 10 -9 72 -10 84 -1 7 5 13 5 17
0 5 -9 66 -7 93 3 6 2 14 1 17 -2 8 -9 85 -10 124 -2 17 4 34 4 36 0 3 -3 31
-5 63 -4 69 4 64 4 133 0 30 -1 70 1 88 4 17 4 34 4 36 0 3 -3 31 -5 63 -4 69
4 64 4 133 0 30 -1 70 1 88 4 17 4 35 3 38 -2 3 -5 12 -5 22 0 10 5 24 6 32 2
8 -4 20 -7 25 -6 82 10 119 20 138 35 19 15 27 17 37 7 12 -10 12 -9 1 6 -12
15 -11 20 6 35 42 37 45 69 44 560 0 352 3 468 12 474 9 6 9 8 0 8 -8 0 -12
34 -12 116 -1 149 -10 182 -64 228 -58 51 -60 52 -79 48 -10 -2 -18 0 -18 5 0
10 -170 10 -186 0 -6 -3 -14 -4 -17 0 -9 8 -205 8 -213 0 -4 -3 -15 -2 -25 3
-12 7 -20 7 -24 0 -4 -6 -12 -7 -18 -3 -16 10 -158 11 -178 1 -9 -4 -19 -4
-23 -1 -9 9 -687 9 -693 0 -2 -4 -13 -3 -23 3 -13 7 -21 7 -25 0 -4 -6 -12 -7
-18 -3 -13 8 -45 12 -50 6z"/>
</g>
</svg>
